name C:\Users\u0101727\Documents\MyRepositories\upper-imu-dc\Results\main_mocap_tracking\Case_6\kinematics.mot
datacolumns 15
datarows 22
range 0.50000000 0.69384615
endheader 
time	ground_thorax_rot_x	ground_thorax_rot_y	ground_thorax_rot_z	clav_prot	clav_elev	scapula_abduction	scapula_elevation	scapula_upward_rot	scapula_winging	plane_elv	shoulder_elv	axial_rot	elbow_flexion	pro_sup	
          0.50000000	          2.48972635	         -4.83348626	         -6.10304004	        -22.80427781	         -6.33394859	        -12.63449654	         -5.48548408	         12.67632323	          6.21098828	        -26.25249230	         11.96763427	         42.78358714	          0.26721439	         34.29395655	
          0.50923077	          2.36973836	         -4.85068680	         -6.59707137	        -22.81994145	         -6.28606786	        -12.67582457	         -5.46678480	         12.59603922	          6.20158121	        -25.91327859	         12.06770501	         42.45064412	          0.22891113	         34.29688242	
          0.51846154	          2.25809693	         -4.86058360	         -7.08221025	        -22.82137202	         -6.25740627	        -12.71079412	         -5.43289996	         12.55065396	          6.20150009	        -25.54176764	         12.16142327	         42.08425410	          0.20674657	         34.29844486	
          0.52769231	          2.15502251	         -4.86431529	         -7.54895508	        -22.82197195	         -6.23890107	        -12.73671508	         -5.40921241	         12.51453528	          6.20308720	        -25.13044256	         12.26016816	         41.66371849	          0.18978359	         34.29990259	
          0.53692308	          2.06087793	         -4.86312903	         -7.99077195	        -22.82032576	         -6.22750935	        -12.75726605	         -5.39081251	         12.47820393	          6.20736025	        -24.67166031	         12.36663406	         41.17078553	          0.17405082	         34.30154813	
          0.54615385	          1.97578137	         -4.85841349	         -8.40344480	        -22.81578177	         -6.22040735	        -12.77490307	         -5.37413471	         12.43651518	          6.21443540	        -24.15986905	         12.48116153	         40.59252305	          0.15780109	         34.30342327	
          0.55538462	          1.89960766	         -4.85156639	         -8.78448142	        -22.80835982	         -6.21578892	        -12.79120993	         -5.35725731	         12.38745949	          6.22410224	        -23.59264010	         12.60259639	         39.92443009	          0.14025773	         34.30550199	
          0.56461538	          1.83204288	         -4.84386047	         -9.13264268	        -22.79860814	         -6.21274526	        -12.80714667	         -5.33959048	         12.33135034	          6.23596056	        -22.97124253	         12.72855311	         39.17320314	          0.12127252	         34.30772492	
          0.57384615	          1.77264310	         -4.83635747	         -9.44758777	        -22.78738667	         -6.21107983	        -12.82315663	         -5.32152352	         12.27006490	          6.24952028	        -22.30026298	         12.85578479	         38.35673103	          0.10110399	         34.31002068	
          0.58307692	          1.72089032	         -4.82986585	         -9.72961275	        -22.77567528	         -6.21114235	        -12.83927364	         -5.30410542	         12.20635154	          6.26429480	        -21.58656880	         12.98068383	         37.50134220	          0.08024240	         34.31232361	
          0.59230769	          1.67624342	         -4.82493157	         -9.97946029	        -22.76440144	         -6.21365352	        -12.85522732	         -5.28873482	         12.14319924	          6.27987756	        -20.83796694	         13.09984533	         36.63764061	          0.05933941	         34.31457307	
          0.60153846	          1.63818532	         -4.82185328	        -10.19818182	        -22.75427058	         -6.21943712	        -12.87052418	         -5.27679886	         12.08328948	          6.29596488	        -20.06170405	         13.21057580	         35.79574136	          0.03918448	         34.31670167	
          0.61076923	          1.60626429	         -4.82071647	        -10.38703983	        -22.74566630	         -6.22907355	        -12.88457309	         -5.26929670	         12.02860855	          6.31231486	        -19.26289645	         13.31124635	         34.99999950	          0.02052552	         34.31864186	
          0.62000000	          1.58011839	         -4.82144256	        -10.54744481	        -22.73869948	         -6.24268658	        -12.89688934	         -5.26664182	         11.98031701	          6.32870154	        -18.44361434	         13.40149762	         34.26432607	          0.00384148	         34.32036397	
          0.62923077	          1.55947211	         -4.82385088	        -10.68091960	        -22.73336990	         -6.26002929	        -12.90724779	         -5.26878464	         11.93893112	          6.34491138	        -17.60313496	         13.48218748	         33.59065831	         -0.01090820	         34.32189389	
          0.63846154	          1.54411382	         -4.82771193	        -10.78908266	        -22.72968959	         -6.28075413	        -12.91582909	         -5.27542913	         11.90432798	          6.36084875	        -16.73893447	         13.55556283	         32.97018169	         -0.02355037	         34.32321335	
          0.64769231	          1.53387570	         -4.83281787	        -10.87363372	        -22.72769052	         -6.30440985	        -12.92297140	         -5.28615197	         11.87620572	          6.37642412	        -15.84761950	         13.62479522	         32.38373189	         -0.03411467	         34.32434844	
          0.65692308	          1.52861005	         -4.83901141	        -10.93633837	        -22.72753929	         -6.33058346	        -12.92937357	         -5.30050168	         11.85401662	          6.39162773	        -14.92471540	         13.69378621	         31.80562770	         -0.04262140	         34.32529909	
          0.66615385	          1.52815539	         -4.84622878	        -10.97901768	        -22.72935731	         -6.35912456	        -12.93579083	         -5.31813473	         11.83686742	          6.40662993	        -13.96512947	         13.76718790	         31.20641489	         -0.04895677	         34.32606092	
          0.67538462	          1.53231677	         -4.85452663	        -11.00353012	        -22.73300803	         -6.39008599	        -12.94255589	         -5.33881596	         11.82374207	          6.42169610	        -12.96402157	         13.84988345	         30.55758605	         -0.05295057	         34.32661794	
          0.68461538	          1.54085450	         -4.86409976	        -11.01175411	        -22.73790393	         -6.42349481	        -12.94917940	         -5.36228574	         11.81371209	          6.43704116	        -11.91713965	         13.94640844	         29.83522831	         -0.05452252	         34.32695270	
          0.69384615	          1.55347157	         -4.87529101	        -11.00557426	        -22.74286917	         -6.45919913	        -12.95413454	         -5.38813976	         11.80596076	          6.45275903	        -10.82070723	         14.06069260	         29.02128627	         -0.05379439	         34.32706078	
